<svg width="130" height="130" viewBox="0 0 130 130" fill="none" xmlns="http://www.w3.org/2000/svg">
<rect width="130" height="130" rx="16" fill="#5E14DE"/>
<path d="M40.117 31.1638L58.5019 41.9412L40.117 52.4016V71.7374L23 61.277V49.2317C23.4962 44.8426 24.5401 42.5351 27.7547 38.7714L40.117 31.1638Z" fill="#C9A5FF"/>
<path d="M89.883 30.8467L71.4981 41.624L89.883 52.0844V71.4203L107 60.9599V48.9146C106.504 44.5255 105.46 42.2179 102.245 38.4542L89.883 30.8467Z" fill="#C9A5FF"/>
<path d="M47.7245 55.8881L64.8415 45.4277L81.9585 55.8881V76.1749L64.8415 85.0504L47.7245 74.907V55.8881Z" fill="#C9A5FF"/>
<path d="M40.434 79.0277V99.9485C40.434 99.9485 28.7057 95.5108 26.4868 91.073C24.2679 86.6353 23.5148 83.8661 23 79.0277V69.2013L40.434 79.0277Z" fill="#C9A5FF"/>
<path d="M106.683 69.5186L89.249 79.9789V99.3148L100.026 93.9261C103.045 91.8621 105.21 88.0467 106.683 82.5148V69.5186Z" fill="#C9A5FF"/>
<path d="M64.8417 37.5033L47.4077 27.9939L57.8681 21.0203C63.0685 18.3112 65.9795 18.342 71.1813 21.0203L82.5926 27.9939L64.8417 37.5033Z" fill="#C9A5FF"/>
<path d="M64.8416 93.6093L47.7246 83.1489V103.436L57.868 109.141C64.0977 111.898 67.2407 111.98 72.1322 109.141L81.6416 103.436V84.4169L64.8416 93.6093Z" fill="#C9A5FF"/>
</svg>
