<svg width="130" height="130" viewBox="0 0 130 130" fill="none" xmlns="http://www.w3.org/2000/svg">
<rect width="130" height="130" rx="16" fill="#193E3E"/>
<path d="M40.117 31.1639L58.5019 41.9413L40.117 52.4017V71.7375L23 61.2771V49.2319C23.4962 44.8427 24.5401 42.5352 27.7547 38.7715L40.117 31.1639Z" fill="#598072"/>
<path d="M89.883 30.8466L71.4981 41.6239L89.883 52.0843V71.4201L107 60.9598V48.9145C106.504 44.5254 105.46 42.2178 102.245 38.4541L89.883 30.8466Z" fill="#598072"/>
<path d="M47.7245 55.888L64.8415 45.4276L81.9585 55.888V76.1748L64.8415 85.0503L47.7245 74.9069V55.888Z" fill="#598072"/>
<path d="M40.434 79.0276V99.9484C40.434 99.9484 28.7057 95.5106 26.4868 91.0729C24.2679 86.6352 23.5148 83.866 23 79.0276V69.2012L40.434 79.0276Z" fill="#598072"/>
<path d="M106.683 69.5187L89.249 79.9791V99.3149L100.026 93.9262C103.045 91.8623 105.21 88.0469 106.683 82.5149V69.5187Z" fill="#598072"/>
<path d="M64.8417 37.5033L47.4077 27.9939L57.8681 21.0203C63.0685 18.3112 65.9795 18.342 71.1813 21.0203L82.5926 27.9939L64.8417 37.5033Z" fill="#598072"/>
<path d="M64.8416 93.6092L47.7246 83.1488V103.436L57.868 109.141C64.0977 111.898 67.2407 111.98 72.1322 109.141L81.6416 103.436V84.4167L64.8416 93.6092Z" fill="#598072"/>
</svg>
